<svg width="30" height="30" viewBox="0 0 30 30" fill="none" xmlns="http://www.w3.org/2000/svg">
<path d="M8.28319 6.82726C7.85054 6.39425 7.14858 6.39425 6.71592 6.82726C5.10952 8.43367 4.31997 10.6715 4.54942 12.9673C4.60667 13.5392 5.08848 13.9656 5.65116 13.9656C5.68813 13.9656 5.7254 13.9637 5.76237 13.96C6.37163 13.8991 6.81606 13.3555 6.75512 12.7467C6.59182 11.1152 7.14899 9.52872 8.28319 8.39447C8.7162 7.96187 8.7162 7.25986 8.28319 6.82726Z" fill="white"/>
<path d="M12.6724 0C5.68483 0 0 5.68483 0 12.6724C0 19.66 5.68483 25.3449 12.6724 25.3449C19.66 25.3449 25.3449 19.66 25.3449 12.6724C25.3449 5.68483 19.66 0 12.6724 0ZM12.6724 23.1281C6.90703 23.1281 2.21678 18.4378 2.21678 12.6724C2.21678 6.90703 6.90703 2.21678 12.6724 2.21678C18.4375 2.21678 23.1281 6.90703 23.1281 12.6724C23.1281 18.4378 18.4378 23.1281 12.6724 23.1281Z" fill="white"/>
<path d="M29.6753 28.108L21.621 20.0538C21.188 19.6208 20.4868 19.6208 20.0538 20.0538C19.6208 20.4865 19.6208 21.1884 20.0538 21.6211L28.108 29.6753C28.3245 29.8918 28.6079 30 28.8916 30C29.1754 30 29.4588 29.8918 29.6753 29.6753C30.1082 29.2426 30.1082 28.5407 29.6753 28.108Z" fill="white"/>
</svg>
