<svg width="31" height="31" viewBox="0 0 31 31" fill="none" xmlns="http://www.w3.org/2000/svg">
<path d="M28.6459 10.9915H27.5429L22.6043 1.67689C22.3693 1.23368 21.8195 1.06506 21.3763 1.2998C20.9331 1.53478 20.7643 2.08455 20.9993 2.52775L25.4868 10.9914H5.64497L10.1325 2.52775C10.3674 2.08455 10.1986 1.53478 9.75543 1.2998C9.31229 1.06488 8.76247 1.23368 8.52748 1.67689L3.58892 10.9915H2.35412C1.05606 10.9915 0 12.0476 0 13.3457C0 14.6437 1.05606 15.6998 2.35412 15.6998H2.41945C2.42145 15.7127 2.42296 15.7258 2.42527 15.7387L4.31941 26.3595C4.67561 28.3566 6.40646 29.8061 8.43503 29.8061H22.6966C24.7252 29.8061 26.4561 28.3566 26.8122 26.3595L28.7064 15.7387C28.7088 15.7252 28.7104 15.7117 28.7125 15.6982C29.9798 15.6626 30.9999 14.6214 30.9999 13.3457C31 12.0475 29.9439 10.9915 28.6459 10.9915ZM25.024 26.0406C24.8226 27.1699 23.8438 27.9896 22.6967 27.9896H8.43509C7.28797 27.9896 6.30923 27.17 6.10779 26.0406L4.26365 15.6998H26.8682L25.024 26.0406ZM28.6459 13.8832H2.35412C2.05769 13.8832 1.81659 13.6421 1.81659 13.3457C1.81659 13.0492 2.05769 12.8081 2.35412 12.8081H28.6459C28.9423 12.8081 29.1834 13.0492 29.1834 13.3457C29.1834 13.6421 28.9423 13.8832 28.6459 13.8832Z" fill="white"/>
<path d="M15.4608 16.96C14.9591 16.96 14.5525 17.3667 14.5525 17.8682V25.8211C14.5525 26.3227 14.9592 26.7294 15.4608 26.7294C15.9624 26.7294 16.369 26.3227 16.369 25.8211V17.8682C16.369 17.3666 15.9624 16.96 15.4608 16.96Z" fill="white"/>
<path d="M12.3618 25.6704L11.0222 17.7175C10.939 17.2227 10.4699 16.8892 9.97569 16.9726C9.48102 17.0559 9.14759 17.5245 9.2309 18.0192L10.5705 25.9721C10.6452 26.4157 11.0297 26.7296 11.465 26.7296C11.5151 26.7296 11.5659 26.7255 11.6169 26.7169C12.1117 26.6336 12.4451 26.165 12.3618 25.6704Z" fill="white"/>
<path d="M20.8823 16.9726C20.3882 16.8897 19.9192 17.2227 19.8358 17.7175L18.4962 25.6704C18.413 26.165 18.7464 26.6335 19.2411 26.7169C19.2921 26.7255 19.3429 26.7296 19.393 26.7296C19.8283 26.7296 20.2129 26.4157 20.2875 25.9721L21.6271 18.0192C21.7105 17.5245 21.377 17.0559 20.8823 16.9726Z" fill="white"/>
</svg>
