<svg width="44" height="41" viewBox="0 0 44 41" fill="none" xmlns="http://www.w3.org/2000/svg">
<path d="M40.6587 13.9064H39.0931L32.0835 0.685605C31.75 0.0565423 30.9696 -0.182794 30.3406 0.150386C29.7115 0.48391 29.4719 1.26422 29.8054 1.89328L36.1748 13.9062H8.01221L14.3816 1.89328C14.7151 1.26422 14.4755 0.48391 13.8464 0.150386C13.2174 -0.183051 12.437 0.0565423 12.1035 0.685605L5.09395 13.9064H3.34134C1.49892 13.9064 0 15.4053 0 17.2477C0 19.0902 1.49892 20.5891 3.34134 20.5891H3.43406C3.4369 20.6075 3.43905 20.6259 3.44231 20.6443L6.13078 35.719C6.63635 38.5535 9.09305 40.6109 11.9723 40.6109H32.2145C35.0938 40.6109 37.5506 38.5535 38.056 35.719L40.7445 20.6443C40.748 20.6252 40.7503 20.6059 40.7532 20.5868C42.552 20.5363 43.9999 19.0584 43.9999 17.2477C44 15.4052 42.5011 13.9064 40.6587 13.9064ZM35.5179 35.2663C35.2321 36.8692 33.8428 38.0327 32.2146 38.0327H11.9724C10.3442 38.0327 8.95503 36.8693 8.66912 35.2663L6.05163 20.5891H38.1355L35.5179 35.2663ZM40.6587 18.0107H3.34134C2.92059 18.0107 2.57838 17.6685 2.57838 17.2477C2.57838 16.827 2.92059 16.4847 3.34134 16.4847H40.6587C41.0793 16.4847 41.4216 16.8269 41.4216 17.2477C41.4216 17.6685 41.0794 18.0107 40.6587 18.0107Z" fill="#612999"/>
<path d="M21.9444 22.3777C21.2324 22.3777 20.6553 22.9549 20.6553 23.6668V34.9548C20.6553 35.6668 21.2325 36.2439 21.9444 36.2439C22.6564 36.2439 23.2336 35.6667 23.2336 34.9548V23.6668C23.2336 22.9548 22.6564 22.3777 21.9444 22.3777Z" fill="#612999"/>
<path d="M17.5459 34.7407L15.6446 23.4527C15.5265 22.7505 14.8606 22.2772 14.1592 22.3955C13.4571 22.5138 12.9838 23.1789 13.1021 23.881L15.0035 35.1689C15.1095 35.7986 15.6553 36.2442 16.2731 36.2442C16.3443 36.2442 16.4164 36.2384 16.4887 36.2262C17.1909 36.1079 17.6642 35.4428 17.5459 34.7407Z" fill="#612999"/>
<path d="M29.6394 22.3956C28.9381 22.2779 28.2724 22.7506 28.154 23.4528L26.2527 34.7408C26.1345 35.4428 26.6078 36.1079 27.3099 36.2262C27.3824 36.2384 27.4544 36.2442 27.5255 36.2442C28.1434 36.2442 28.6892 35.7987 28.7952 35.169L30.6964 23.881C30.8149 23.1789 30.3415 22.5138 29.6394 22.3956Z" fill="#612999"/>
</svg>
