<svg width="29" height="31" viewBox="0 0 29 31" fill="none" xmlns="http://www.w3.org/2000/svg">
<path d="M27.3672 5.02539H20.041V3.63281C20.041 1.62968 18.4113 0 16.4082 0H12.1699C10.1668 0 8.53711 1.62968 8.53711 3.63281V5.02539H1.21094C0.542137 5.02539 0 5.56753 0 6.23633C0 6.90513 0.542137 7.44727 1.21094 7.44727H2.46498L3.94075 26.5793C3.94118 26.5849 3.94166 26.5905 3.94215 26.5961C4.0521 27.8025 4.60538 28.9166 5.50002 29.7334C6.39466 30.5502 7.55449 31 8.76586 31H19.8123C22.3351 31 24.4088 29.1211 24.636 26.6295C24.6967 25.9635 24.206 25.3743 23.54 25.3136C22.8733 25.2529 22.2848 25.7436 22.2241 26.4096C22.1114 27.6459 21.0746 28.5781 19.8123 28.5781H8.76586C7.50787 28.5781 6.47264 27.6353 6.3547 26.3838L4.89406 7.44727H23.6841L22.6498 20.8561C22.5984 21.5229 23.0972 22.1051 23.764 22.1566C23.7958 22.159 23.8272 22.1602 23.8585 22.1602C24.485 22.1602 25.0155 21.6774 25.0645 21.0423L26.1131 7.44727H27.3672C28.036 7.44727 28.5781 6.90513 28.5781 6.23633C28.5781 5.56753 28.036 5.02539 27.3672 5.02539ZM17.6191 5.02539H10.959V3.63281C10.959 2.9651 11.5022 2.42188 12.1699 2.42188H16.4082C17.0759 2.42188 17.6191 2.9651 17.6191 3.63281V5.02539Z" fill="#E6167A" fill-opacity="0.5"/>
<path d="M8.78701 9.87029C8.11888 9.89947 7.6009 10.4647 7.63008 11.1329L8.23555 24.9941C8.26395 25.6443 8.79997 26.1523 9.44443 26.1523C9.46223 26.1523 9.48021 26.1519 9.49819 26.151C10.1663 26.1219 10.6843 25.5566 10.6551 24.8884L10.0497 11.0272C10.0205 10.3591 9.45412 9.84026 8.78701 9.87029Z" fill="#E6167A" fill-opacity="0.5"/>
<path d="M18.5285 11.0272L17.9231 24.8885C17.8939 25.5566 18.4118 26.1219 19.08 26.1511C19.098 26.1519 19.1159 26.1523 19.1337 26.1523C19.7781 26.1523 20.3142 25.6443 20.3426 24.9942L20.9481 11.133C20.9773 10.4649 20.4593 9.89954 19.7912 9.87035C19.1241 9.8405 18.5577 10.3591 18.5285 11.0272Z" fill="#E6167A" fill-opacity="0.5"/>
<path d="M13.0781 11.0801V24.9413C13.0781 25.6101 13.6203 26.1522 14.2891 26.1522C14.9579 26.1522 15.5 25.6101 15.5 24.9413V11.0801C15.5 10.4113 14.9579 9.86914 14.2891 9.86914C13.6203 9.86914 13.0781 10.4113 13.0781 11.0801Z" fill="#E6167A" fill-opacity="0.5"/>
</svg>
